#!OML:ASF I:\Actors\actors\Patient Classification 1\Patient 1\Session 1\Subject1.ASF
:FULLY-SPECIFIED
:DEGREES
606
root 0.590126 17.5105 9.23721 8.88626 -2.67068 -9.63099
lowerback 1.15898 3.45814 6.15311
upperback -7.42397 5.10781 1.47924
thorax -8.07828 2.16681 -2.26202
lowerneck -15.2827 -2.59082 -0.254579
upperneck 29.071 -5.45577 5.69309
head 12.3248 -1.71338 1.38029
rclavicle -1.54058e-015 1.70955e-014
rhumerus -0.416068 41.8882 -79.2224
rradius 92.4459
rwrist 25.9355
rhand 8.38045 -29.5101
rfingers 7.12502
rthumb 33.5887 -56.3842
lclavicle -1.54058e-015 1.70955e-014
lhumerus -19.546 -37.7232 79.4628
lradius 94.9459
lwrist -24.1214
lhand -23.0763 -26.7255
lfingers 7.12502
lthumb 3.36938 3.22766
rfemur -8.33441 17.9647 26.0214
rtibia 11.1174
rfoot -13.9645 -19.5725
rtoes -2.18759
lfemur 3.37852 -37.3565 -9.92777
ltibia -2.76436
lfoot -20.5363 48.0375
ltoes 9.37089
607
root 0.591808 17.513 9.23591 9.00062 -3.03883 -9.71084
lowerback 1.18017 3.66708 6.40025
upperback -7.49169 5.39765 1.33644
thorax -8.10915 2.28514 -2.56957
lowerneck -15.3824 -2.65726 -0.236499
upperneck 29.1887 -5.58549 5.74857
head 12.4004 -1.75626 1.37898
rclavicle -5.05907e-014 -6.36111e-015
rhumerus 1.90205 42.6287 -78.6251
rradius 90.6509
rwrist 25.9208
rhand 7.73756 -28.4657
rfingers 7.12502
rthumb 32.9775 -55.4707
lclavicle -5.05907e-014 -6.36111e-015
lhumerus -19.6302 -38.0255 79.4673
lradius 95.1569
lwrist -24.1908
lhand -23.1248 -26.8294
lfingers 7.12502
lthumb 3.32259 3.12443
rfemur -8.4472 18.1999 26.0523
rtibia 11.0596
rfoot -13.7943 -19.4201
rtoes -2.24059
lfemur 3.49305 -37.5308 -9.95636
ltibia -2.81796
lfoot -21.4025 48.426
ltoes 10.5148
608
root 0.593121 17.5148 9.23536 9.07931 -3.34542 -9.75044
lowerback 1.22333 3.84502 6.56416
upperback -7.53948 5.64421 1.22119
thorax -8.14081 2.38891 -2.80068
lowerneck -15.4476 -2.71104 -0.253761
upperneck 29.2054 -5.69149 5.84557
head 12.4299 -1.79046 1.4022
rclavicle -3.45885e-014 -1.19271e-014
rhumerus 4.16167 43.4106 -77.9348
rradius 88.7229
rwrist 25.8657
rhand 7.74408 -27.239
rfingers 7.12502
rthumb 32.9837 -54.2427
lclavicle -3.45885e-014 -1.19271e-014
lhumerus -19.6536 -38.2471 79.4947
lradius 95.3326
lwrist -24.2933
lhand -23.165 -26.9181
lfingers 7.12502
lthumb 3.28373 3.03639
rfemur -8.50251 18.3542 26.0495
rtibia 10.9703
rfoot -13.6948 -19.236
rtoes -2.16352
lfemur 3.56909 -37.5687 -10.0107
ltibia -2.8197
lfoot -21.9614 48.6964
ltoes 11.168
609
root 0.59285 17.5162 9.23579 9.13534 -3.57003 -9.74098
lowerback 1.25465 4.01397 6.62397
upperback -7.58003 5.87257 1.11867
thorax -8.16698 2.49168 -2.9592
lowerneck -15.4897 -2.77961 -0.281397
upperneck 29.1756 -5.81714 5.95967
head 12.4377 -1.8339 1.43032
rclavicle -1.2921e-014 -2.10712e-014
rhumerus 6.2597 44.1093 -77.0713
rradius 86.7669
rwrist 25.6818
rhand 8.3829 -25.5951
rfingers 7.12502
rthumb 33.591 -52.4687
lclavicle -1.2921e-014 -2.10712e-014
lhumerus -19.6218 -38.4906 79.5586
lradius 95.4802
lwrist -24.338
lhand -22.9615 -27.1188
lfingers 7.12502
lthumb 3.48032 2.83255
rfemur -8.52395 18.4869 26.0057
rtibia 10.8842
rfoot -13.6755 -19.0939
rtoes -1.92905
lfemur 3.61297 -37.5954 -10.0983
ltibia -2.79719
lfoot -22.0864 48.9555
ltoes 11.147
610
root 0.591917 17.5167 9.23759 9.1862 -3.71507 -9.78347
lowerback 1.26507 4.1856 6.70215
upperback -7.64616 6.10697 1.03703
thorax -8.20811 2.59597 -3.10557
lowerneck -15.4042 -2.84833 -0.284328
upperneck 29.0795 -5.94661 6.09003
head 12.3924 -1.87868 1.46042
rclavicle 2.17669e-014 7.95139e-016
rhumerus 8.0399 44.7183 -76.0893
rradius 84.9686
rwrist 25.2731
rhand 10.0406 -23.6304
rfingers 7.12502
rthumb 35.1648 -50.1479
lclavicle 2.17669e-014 7.95139e-016
lhumerus -19.6579 -38.8169 79.7225
lradius 95.6058
lwrist -24.329
lhand -22.762 -27.2987
lfingers 7.12502
lthumb 3.67297 2.6494
rfemur -8.52213 18.5872 26.0337
rtibia 10.7993
rfoot -13.6285 -18.9963
rtoes -1.58948
lfemur 3.63757 -37.6093 -10.086
ltibia -2.79118
lfoot -22.0945 49.1279
ltoes 10.9564
611
root 0.589141 17.5172 9.24217 9.20027 -3.78288 -9.8487
lowerback 1.26888 4.32574 6.77374
upperback -7.7075 6.29861 0.965883
thorax -8.24492 2.68024 -3.23388
lowerneck -15.269 -2.91163 -0.296309
upperneck 28.9441 -6.07943 6.27916
head 12.3243 -1.92082 1.51395
rclavicle 3.86139e-014 -7.95139e-015
rhumerus 9.30719 45.1428 -75.2767
rradius 83.6016
rwrist 24.8361
rhand 13.1525 -21.8442
rfingers 7.12502
rthumb 38.1098 -47.6134
lclavicle 3.86139e-014 -7.95139e-015
lhumerus -19.7456 -39.1176 79.9234
lradius 95.7003
lwrist -24.4553
lhand -22.7022 -27.444
lfingers 7.12502
lthumb 3.73066 2.50312
rfemur -8.43767 18.6431 26.1204
rtibia 10.6714
rfoot -13.5617 -18.9471
rtoes -1.33102
lfemur 3.68805 -37.5914 -10.0364
ltibia -2.80114
lfoot -22.084 49.1995
ltoes 10.8
612
root 0.583984 17.519 9.25007 9.19084 -3.72479 -9.93513
lowerback 1.25212 4.42494 6.79973
upperback -7.74292 6.43289 0.94358
thorax -8.25595 2.74297 -3.27958
lowerneck -15.3371 -2.99749 -0.379798
upperneck 28.9336 -6.2422 6.47707
head 12.3533 -1.97482 1.57776
rclavicle 4.87022e-014 4.77083e-015
rhumerus 10.0036 45.3913 -74.6346
rradius 82.8587
rwrist 24.6002
rhand 16.6261 -20.8385
rfingers 7.12502
rthumb 41.38 -45.6329
lclavicle 4.87022e-014 4.77083e-015
lhumerus -19.7799 -39.3711 80.1498
lradius 95.745
lwrist -24.7169
lhand -22.6705 -27.5335
lfingers 7.12502
lthumb 3.76126 2.41305
rfemur -8.26227 18.662 26.2669
rtibia 10.4709
rfoot -13.5646 -18.973
rtoes -1.15204
lfemur 3.76016 -37.611 -9.94562
ltibia -2.85586
lfoot -21.9643 49.2164
ltoes 10.6079
613
root 0.579559 17.5207 9.2597 9.17956 -3.46742 -10.0394
lowerback 1.20234 4.45453 6.77693
upperback -7.7682 6.47291 0.995715
thorax -8.25916 2.76629 -3.21172
lowerneck -15.5961 -3.08604 -0.516826
upperneck 29.046 -6.40113 6.65187
head 12.4731 -2.02754 1.64203
rclavicle 7.30534e-015 -1.59028e-015
rhumerus 10.2687 45.7024 -73.9258
rradius 82.7002
rwrist 24.5497
rhand 19.1854 -20.6076
rfingers 7.12502
rthumb 43.7755 -44.5737
lclavicle 7.30534e-015 -1.59028e-015
lhumerus -19.7844 -39.5495 80.4335
lradius 95.7735
lwrist -24.9934
lhand -22.6625 -27.6956
lfingers 7.12502
lthumb 3.76899 2.25079
rfemur -8.02239 18.6318 26.451
rtibia 10.1709
rfoot -13.5461 -19.1557
rtoes -0.985879
lfemur 3.72359 -37.6329 -9.75577
ltibia -2.87549
lfoot -21.6458 49.0824
ltoes 10.2037
614
root 0.576115 17.5213 9.27012 9.08652 -3.03604 -10.0302
lowerback 1.14488 4.43362 6.61298
upperback -7.77914 6.43505 1.03687
thorax -8.26127 2.76103 -3.0728
lowerneck -15.6744 -3.19352 -0.629167
upperneck 29.0091 -6.58844 6.85978
head 12.4975 -2.09442 1.71021
rclavicle 1.63997e-014 -1.35174e-014
rhumerus 10.176 46.0275 -73.1236
rradius 82.9583
rwrist 24.4821
rhand 20.7682 -20.5311
rfingers 7.12502
rthumb 45.25 -43.9315
lclavicle 1.63997e-014 -1.35174e-014
lhumerus -19.8006 -39.7776 80.7357
lradius 95.7978
lwrist -25.1951
lhand -22.6338 -27.9167
lfingers 7.12502
lthumb 3.79674 2.0292
rfemur -7.65289 18.6049 26.5419
rtibia 9.78648
rfoot -13.4905 -19.5629
rtoes -0.771515
lfemur 3.62926 -37.5883 -9.67056
ltibia -2.799
lfoot -21.0974 48.7325
ltoes 9.51946
615
root 0.573027 17.5209 9.28023 8.93338 -2.47159 -10.0038
lowerback 1.10502 4.38314 6.43979
upperback -7.78781 6.3596 1.08965
thorax -8.27667 2.73784 -2.91601
lowerneck -15.5196 -3.33562 -0.854067
upperneck 28.7954 -6.80599 7.17514
head 12.4127 -2.18465 1.83403
rclavicle -5.62561e-014 -4.92986e-014
rhumerus 9.70604 46.2603 -72.416
rradius 83.4139
rwrist 24.2097
rhand 21.5757 -20.5248
rfingers 7.12502
rthumb 46 -43.6194
lclavicle -5.62561e-014 -4.92986e-014
lhumerus -19.8596 -40.0819 81.1081
lradius 95.8175
lwrist -25.2941
lhand -22.616 -27.9425
lfingers 7.12502
lthumb 3.81396 2.00312
rfemur -7.22032 18.5542 26.6406
rtibia 9.41521
rfoot -13.5387 -20.0625
rtoes -0.363382
lfemur 3.51579 -37.5066 -9.57702
ltibia -2.70485
lfoot -20.4292 48.2228
ltoes 8.79814
616
root 0.569899 17.5203 9.28884 8.80986 -1.81789 -10.0833
lowerback 1.0851 4.25353 6.36165
upperback -7.79998 6.19221 1.23795
thorax -8.31785 2.66538 -2.70725
lowerneck -15.4214 -3.43198 -1.11062
upperneck 28.6503 -6.91194 7.35313
head 12.3567 -2.2435 1.9284
rclavicle 1.78906e-015 -1.27222e-014
rhumerus 9.12373 46.5356 -71.8415
rradius 83.7914
rwrist 23.8317
rhand 21.6715 -20.5859
rfingers 7.12502
rthumb 46.0889 -43.6434
lclavicle 1.78906e-015 -1.27222e-014
lhumerus -20.0563 -40.1979 81.5458
lradius 95.8944
lwrist -25.3161
lhand -22.6606 -27.8862
lfingers 7.12502
lthumb 3.77083 2.06014
rfemur -6.86743 18.4766 26.8506
rtibia 9.11967
rfoot -13.632 -20.5884
rtoes 0.126917
lfemur 3.29785 -37.4337 -9.27069
ltibia -2.6278
lfoot -19.6378 47.6813
ltoes 7.93946
617
root 0.5676 17.5199 9.29731 8.69798 -1.17567 -10.1348
lowerback 1.06736 4.05692 6.31118
upperback -7.79684 5.93577 1.39263
thorax -8.34777 2.54799 -2.50038
lowerneck -15.4189 -3.43483 -1.11957
upperneck 28.5974 -6.85159 7.17267
head 12.3224 -2.24256 1.86966
rclavicle -3.7123e-014 -2.38542e-014
rhumerus 8.72799 46.8429 -71.3595
rradius 83.9123
rwrist 23.5664
rhand 21.2157 -20.3947
rfingers 7.12502
rthumb 45.6659 -43.6271
lclavicle -3.7123e-014 -2.38542e-014
lhumerus -20.4177 -40.1094 81.8946
lradius 96.0774
lwrist -25.2603
lhand -22.5984 -27.9881
lfingers 7.12502
lthumb 3.83095 1.95724
rfemur -6.59324 18.3647 27.0079
rtibia 8.93195
rfoot -13.7618 -21.0752
rtoes 0.525031
lfemur 3.09256 -37.4393 -9.01903
ltibia -2.56721
lfoot -18.9068 47.2125
ltoes 7.106
618
root 0.567216 17.5193 9.30376 8.59408 -0.627816 -10.1118
lowerback 1.05609 3.85053 6.29464
upperback -7.78495 5.66341 1.4889
thorax -8.36223 2.41864 -2.3718
lowerneck -15.3932 -3.37366 -0.944861
upperneck 28.5046 -6.69095 6.81043
head 12.2475 -2.20238 1.72568
rclavicle 2.16178e-014 1.07344e-014
rhumerus 8.85909 47.2149 -70.7673
rradius 83.6978
rwrist 23.415
rhand 20.4326 -20.0349
rfingers 7.12502
rthumb 44.9378 -43.5589
lclavicle 2.16178e-014 1.07344e-014
lhumerus -20.8616 -39.9587 82.1181
lradius 96.3593
lwrist -25.1718
lhand -22.4866 -28.16
lfingers 7.12502
lthumb 3.93888 1.78336
rfemur -6.42113 18.2326 27.0515
rtibia 8.8978
rfoot -13.9426 -21.4532
rtoes 0.767601
lfemur 2.95913 -37.5307 -8.925
ltibia -2.5265
lfoot -18.3615 46.8471
ltoes 6.50447
